<svg width="278" height="75" viewBox="0 0 278 75" fill="none" xmlns="http://www.w3.org/2000/svg">
<g clip-path="url(#clip0_62_705)">
<path d="M216.949 46.5254C216.949 48.0508 216.695 49.4915 216.102 50.678C215.593 51.9491 214.831 52.9661 213.898 53.8983C212.966 54.7458 211.864 55.4237 210.678 55.8475C209.492 56.2712 208.22 56.5254 206.864 56.5254C205.424 56.5254 203.983 56.1864 202.458 55.5932C201.017 54.9152 199.746 53.983 198.729 52.7119L202.119 50.2542C202.542 50.8475 203.22 51.4407 204.068 51.9491C204.915 52.4576 205.763 52.6271 206.695 52.6271C208.729 52.6271 210.254 52.0339 211.356 50.9322C212.458 49.8305 213.051 48.4746 213.051 46.8644V45.5932C212.119 46.6102 211.186 47.3729 210.085 47.7966C209.068 48.3051 207.797 48.5593 206.441 48.5593C205.169 48.5593 203.983 48.3051 202.881 47.8813C201.78 47.4576 200.763 46.7797 199.915 45.9322C199.068 45.0847 198.39 44.0678 197.881 42.7966C197.373 41.6102 197.119 40.2542 197.119 38.7288C197.119 37.2034 197.373 35.7627 197.881 34.5763C198.39 33.3051 199.153 32.2881 200.085 31.4407C201.017 30.5932 202.034 29.9152 203.22 29.4915C204.407 29.0678 205.678 28.8136 206.949 28.8136C209.576 28.8136 211.525 29.7458 212.966 31.6102H213.051V29.322H216.949V46.5254V46.5254ZM203.136 43.0508C204.237 44.2373 205.593 44.7458 207.373 44.7458C208.983 44.7458 210.424 44.1525 211.441 43.0508C212.542 41.8644 213.051 40.5085 213.051 38.8136C213.051 37.9661 212.881 37.2034 212.627 36.4407C212.373 35.678 211.949 35.0847 211.356 34.4915C210.847 33.8983 210.169 33.4746 209.492 33.2203C208.814 32.8814 208.051 32.7966 207.288 32.7966C205.678 32.7966 204.322 33.3898 203.136 34.5763C202.034 35.7627 201.441 37.1186 201.441 38.8136C201.525 40.5085 202.034 41.8644 203.136 43.0508Z" fill="black"/>
<path d="M237.458 45.8475C236.695 46.6949 235.847 47.4576 234.661 47.9661C233.559 48.4746 232.288 48.7288 231.017 48.7288C229.491 48.7288 228.136 48.4746 226.864 47.8814C225.593 47.2881 224.576 46.5254 223.644 45.5932C222.797 44.661 222.119 43.5593 221.61 42.2881C221.186 41.1017 220.932 39.8305 220.932 38.5593C220.932 37.3729 221.186 36.1864 221.61 34.9153C222.119 33.7288 222.797 32.6271 223.644 31.6102C224.576 30.5932 225.678 29.8305 226.949 29.2373C228.22 28.6441 229.576 28.3898 231.102 28.3898C232.458 28.3898 233.729 28.6441 234.746 29.1525C235.847 29.661 236.61 30.339 237.203 31.1864H237.288V28.8136H241.441V48.0508H237.288V45.8475H237.458ZM225.932 40.9322C226.271 41.6949 226.695 42.3729 227.288 42.9661C227.881 43.5593 228.474 43.9831 229.237 44.322C230 44.661 230.763 44.8305 231.61 44.8305C232.373 44.8305 233.136 44.661 233.898 44.322C234.661 43.9831 235.254 43.5593 235.847 42.9661C236.441 42.3729 236.864 41.6949 237.203 40.9322C237.542 40.1695 237.712 39.4068 237.712 38.5593C237.712 37.7119 237.542 36.9492 237.203 36.1864C236.864 35.4237 236.441 34.7458 235.847 34.1525C235.254 33.5593 234.661 33.1356 233.898 32.7966C233.136 32.4576 232.373 32.2881 231.61 32.2881C230.763 32.2881 230 32.4576 229.237 32.7966C228.474 33.1356 227.797 33.5593 227.288 34.1525C226.695 34.7458 226.271 35.4237 225.932 36.1864C225.593 36.9492 225.424 37.7119 225.424 38.5593C225.508 39.4068 225.593 40.1695 225.932 40.9322Z" fill="black"/>
<path d="M245.763 28.8983H249.661V31.017H249.746C250.085 30.2542 250.593 29.5763 251.271 29.1525C251.949 28.6441 252.712 28.4746 253.559 28.4746C254.492 28.4746 255.254 28.6441 255.847 29.0678L254.407 33.1356C254.237 32.9661 253.983 32.8814 253.644 32.7119C253.305 32.6271 253.051 32.5424 252.881 32.5424C252.119 32.5424 251.441 32.7966 250.847 33.3898C250.254 33.8983 250 34.661 250 35.5085V48.2203H245.763V28.8983Z" fill="black"/>
<path d="M273.39 45.8475C272.627 46.6949 271.78 47.4576 270.593 47.9661C269.491 48.4746 268.22 48.7288 266.949 48.7288C265.424 48.7288 264.068 48.4746 262.797 47.8814C261.525 47.2881 260.508 46.5254 259.576 45.5932C258.729 44.661 258.051 43.5593 257.627 42.2881C257.203 41.1017 256.949 39.8305 256.949 38.5593C256.949 37.3729 257.203 36.1864 257.627 34.9153C258.136 33.7288 258.813 32.6271 259.746 31.6102C260.678 30.5932 261.695 29.8305 262.966 29.2373C264.237 28.6441 265.593 28.3898 267.119 28.3898C268.475 28.3898 269.746 28.6441 270.763 29.1525C271.864 29.661 272.627 30.339 273.22 31.1864H273.305V23.1356H277.458V48.1356H273.305V45.8475H273.39ZM261.78 40.9322C262.119 41.6949 262.542 42.3729 263.136 42.9661C263.729 43.5593 264.322 43.983 265.085 44.322C265.847 44.661 266.61 44.8305 267.458 44.8305C268.22 44.8305 269.068 44.661 269.746 44.322C270.508 43.983 271.186 43.5593 271.695 42.9661C272.288 42.3729 272.712 41.6949 273.051 40.9322C273.39 40.1695 273.559 39.4068 273.559 38.5593C273.559 37.7119 273.39 36.9492 273.051 36.1864C272.712 35.4237 272.288 34.7458 271.695 34.1525C271.102 33.5593 270.508 33.1356 269.746 32.7966C268.983 32.4576 268.22 32.2881 267.458 32.2881C266.61 32.2881 265.847 32.4576 265.085 32.7966C264.322 33.1356 263.644 33.5593 263.136 34.1525C262.542 34.7458 262.119 35.4237 261.78 36.1864C261.441 36.9492 261.271 37.7119 261.271 38.5593C261.356 39.4068 261.525 40.1695 261.78 40.9322Z" fill="black"/>
<path d="M114.915 28.3898L105.932 48.7288H103.729L99.661 39.4068H99.5763L95.5085 48.7288H93.3051L84.322 28.3898H89.1525L94.8305 41.6949H94.9152L99.661 31.2712L104.322 41.6949H104.407L110.169 28.3898H114.915Z" fill="black"/>
<path d="M135.932 43.9831C134.746 45.4237 133.39 46.6102 131.864 47.3729C130.339 48.2203 128.644 48.6441 126.949 48.6441C125.339 48.6441 123.814 48.3898 122.542 47.7966C121.186 47.2034 120.085 46.4407 119.153 45.5085C118.22 44.5763 117.542 43.4746 117.034 42.2034C116.525 41.0169 116.356 39.7458 116.356 38.4746C116.356 37.2034 116.61 35.9322 117.034 34.7458C117.542 33.5593 118.22 32.4576 119.153 31.4407C120.085 30.5085 121.186 29.7458 122.542 29.1525C123.898 28.5593 125.339 28.3051 126.949 28.3051C127.966 28.3051 129.153 28.5593 130.254 28.983C131.441 29.4068 132.458 30.0847 133.559 31.0169C134.576 31.9491 135.424 33.0508 136.017 34.4068C136.61 35.7627 136.949 37.3729 136.949 39.1525V39.9153H120.932C121.017 41.3559 121.695 42.5424 122.797 43.4746C123.983 44.4915 125.339 44.9153 126.78 44.9153C128.983 44.9153 130.847 43.8983 132.373 41.9492L135.932 43.9831ZM132.119 36.5254C131.695 35.0847 130.932 33.983 129.915 33.1356C128.898 32.3729 127.712 31.9492 126.356 31.9492C125 31.9492 123.898 32.3729 122.881 33.1356C121.864 33.8983 121.271 35 120.932 36.4407H132.119V36.5254Z" fill="black"/>
<path d="M146.102 23.2203V40.4237C146.102 41.5254 146.186 42.2881 146.441 42.7966C146.695 43.3051 147.119 43.7288 147.797 44.1525L150 45.4237L148.136 48.6441C145.847 47.5424 144.237 46.4407 143.305 45.4237C142.373 44.4068 141.949 42.9661 141.949 41.1017V23.2203H146.102Z" fill="black"/>
<path d="M171.949 43.9831C170.763 45.4237 169.407 46.6102 167.881 47.3729C166.356 48.2203 164.746 48.6441 162.966 48.6441C161.356 48.6441 159.915 48.3898 158.559 47.7966C157.203 47.2034 156.102 46.4407 155.169 45.5085C154.237 44.5763 153.559 43.4746 153.051 42.2034C152.542 41.0169 152.288 39.7458 152.288 38.4746C152.288 37.2034 152.542 35.9322 153.051 34.7458C153.559 33.5593 154.237 32.4576 155.169 31.4407C156.102 30.5085 157.203 29.7458 158.559 29.1525C159.915 28.5593 161.356 28.3051 162.966 28.3051C164.068 28.3051 165.169 28.5593 166.271 28.983C167.458 29.4068 168.475 30.0847 169.491 31.0169C170.508 31.9491 171.356 33.0508 171.949 34.4068C172.542 35.7627 172.881 37.3729 172.881 39.1525V39.9153H156.864C156.949 41.3559 157.627 42.5424 158.814 43.4746C160 44.4915 161.271 44.9153 162.797 44.9153C165 44.9153 166.864 43.8983 168.39 41.9492L171.949 43.9831ZM168.136 36.5254C167.712 35.0847 166.949 33.983 165.932 33.1356C164.915 32.3729 163.729 31.9492 162.373 31.9492C161.017 31.9492 159.915 32.3729 158.898 33.1356C157.881 33.8983 157.288 35 156.949 36.4407H168.136V36.5254Z" fill="black"/>
<path d="M177.119 43.8983L180.678 41.9492C181.525 43.8983 183.136 44.9153 185.508 44.9153C187.797 44.9153 188.898 44.0678 188.898 42.8814C188.898 42.2034 188.559 41.6949 187.881 41.2712C187.203 40.8475 186.017 40.4237 184.322 40C182.458 39.4915 181.271 39.0678 180 38.2203C178.729 37.3729 178.051 36.017 178.051 34.2373C178.051 32.4576 178.729 31.017 180.085 30C181.441 28.8983 183.051 28.3898 185 28.3898C188.39 28.3898 191.017 30 192.458 32.7966L188.983 34.661C188.136 32.9661 186.78 32.1186 185 32.1186C183.305 32.1186 182.288 32.8814 182.288 34.0678C182.288 34.661 182.542 35.1695 183.136 35.5932C183.729 35.9322 184.746 36.3559 186.271 36.7797L187.712 37.2034C188.051 37.2881 188.475 37.4576 189.068 37.7119C189.661 37.8814 190.085 38.1356 190.424 38.3051C191.017 38.6441 192.034 39.4068 192.373 40C192.797 40.678 193.136 41.6102 193.136 42.7966C193.136 44.5763 192.458 46.0169 191.017 47.1186C189.576 48.2203 187.797 48.7288 185.508 48.7288C181.186 48.7288 178.305 46.8644 177.119 43.8983Z" fill="black"/>
<path d="M56.356 0L38.8136 16.6102V35.4237L56.356 18.0508V0Z" fill="#0055B8"/>
<path d="M37.0339 16.6102L19.4067 0V18.0508L37.0339 35.4237V16.6102Z" fill="#0055B8"/>
<path d="M40.339 38.2203L57.7119 55.8475H75.7627L59.1526 38.2203H40.339Z" fill="#CF3339"/>
<path d="M59.1526 36.4407L75.7627 18.8983H57.7119L40.339 36.4407H59.1526Z" fill="#CF3339"/>
<path d="M16.6102 38.2203L0 55.8475H18.0508L35.4237 38.2203H16.6102Z" fill="#CF3339"/>
<path d="M35.4237 36.4407L18.0508 18.8983H0L16.6102 36.4407H35.4237Z" fill="#CF3339"/>
<path d="M56.356 56.9491L38.8136 39.5763V58.3898L56.356 75V56.9491Z" fill="#0055B8"/>
<path d="M37.0339 39.5763L19.4067 56.9491V75L37.0339 58.3898V39.5763Z" fill="#0055B8"/>
</g>
<defs>
<clipPath id="clip0_62_705">
<rect width="277.458" height="75" fill="none"/>
</clipPath>
</defs>
</svg>
