<svg width="278" height="75" viewBox="0 0 278 75" fill="none" xmlns="http://www.w3.org/2000/svg">
<g clip-path="url(#clip0_62_410)">
<path d="M216.949 46.5253C216.949 48.0508 216.695 49.4914 216.102 50.6779C215.593 51.9491 214.831 52.966 213.898 53.8982C212.966 54.7457 211.864 55.4236 210.678 55.8474C209.492 56.2711 208.22 56.5253 206.864 56.5253C205.424 56.5253 203.983 56.1864 202.458 55.5931C201.017 54.9152 199.746 53.983 198.729 52.7118L202.119 50.2542C202.542 50.8474 203.22 51.4406 204.068 51.9491C204.915 52.4575 205.763 52.627 206.695 52.627C208.729 52.627 210.254 52.0338 211.356 50.9321C212.458 49.8304 213.051 48.4745 213.051 46.8643V45.5931C212.119 46.6101 211.186 47.3728 210.085 47.7965C209.068 48.305 207.797 48.5592 206.441 48.5592C205.169 48.5592 203.983 48.305 202.881 47.8813C201.78 47.4575 200.763 46.7796 199.915 45.9321C199.068 45.0847 198.39 44.0677 197.881 42.7965C197.373 41.6101 197.119 40.2542 197.119 38.7287C197.119 37.2033 197.373 35.7626 197.881 34.5762C198.39 33.305 199.153 32.2881 200.085 31.4406C201.017 30.5931 202.034 29.9152 203.22 29.4914C204.407 29.0677 205.678 28.8135 206.949 28.8135C209.576 28.8135 211.525 29.7457 212.966 31.6101H213.051V29.3219H216.949V46.5253ZM203.136 43.0508C204.237 44.2372 205.593 44.7457 207.373 44.7457C208.983 44.7457 210.424 44.1525 211.441 43.0508C212.542 41.8643 213.051 40.5084 213.051 38.8135C213.051 37.966 212.881 37.2033 212.627 36.4406C212.373 35.6779 211.949 35.0847 211.356 34.4914C210.847 33.8982 210.169 33.4745 209.492 33.2203C208.814 32.8813 208.051 32.7965 207.288 32.7965C205.678 32.7965 204.322 33.3897 203.136 34.5762C202.034 35.7626 201.441 37.1186 201.441 38.8135C201.525 40.5084 202.034 41.8643 203.136 43.0508Z" fill="white"/>
<path d="M237.458 45.8478C236.695 46.6952 235.847 47.4579 234.661 47.9664C233.559 48.4749 232.288 48.7291 231.017 48.7291C229.491 48.7291 228.136 48.4749 226.864 47.8817C225.593 47.2884 224.576 46.5257 223.644 45.5935C222.797 44.6613 222.119 43.5596 221.61 42.2884C221.186 41.102 220.932 39.8308 220.932 38.5596C220.932 37.3732 221.186 36.1867 221.61 34.9156C222.119 33.7291 222.797 32.6274 223.644 31.6105C224.576 30.5935 225.678 29.8308 226.949 29.2376C228.22 28.6444 229.576 28.3901 231.102 28.3901C232.458 28.3901 233.729 28.6444 234.746 29.1528C235.847 29.6613 236.61 30.3393 237.203 31.1867H237.288V28.8139H241.441V48.0512H237.288V45.8478H237.458ZM225.932 40.9325C226.271 41.6952 226.695 42.3732 227.288 42.9664C227.881 43.5596 228.474 43.9834 229.237 44.3223C230 44.6613 230.763 44.8308 231.61 44.8308C232.373 44.8308 233.136 44.6613 233.898 44.3223C234.661 43.9834 235.254 43.5596 235.847 42.9664C236.441 42.3732 236.864 41.6952 237.203 40.9325C237.542 40.1698 237.712 39.4071 237.712 38.5596C237.712 37.7122 237.542 36.9495 237.203 36.1867C236.864 35.424 236.441 34.7461 235.847 34.1528C235.254 33.5596 234.661 33.1359 233.898 32.7969C233.136 32.4579 232.373 32.2884 231.61 32.2884C230.763 32.2884 230 32.4579 229.237 32.7969C228.474 33.1359 227.797 33.5596 227.288 34.1528C226.695 34.7461 226.271 35.424 225.932 36.1867C225.593 36.9495 225.424 37.7122 225.424 38.5596C225.508 39.4071 225.593 40.1698 225.932 40.9325Z" fill="white"/>
<path d="M245.763 28.8983H249.661V31.017H249.746C250.085 30.2543 250.593 29.5763 251.271 29.1526C251.949 28.6441 252.712 28.4746 253.559 28.4746C254.492 28.4746 255.254 28.6441 255.847 29.0678L254.407 33.1356C254.237 32.9661 253.983 32.8814 253.644 32.7119C253.305 32.6272 253.051 32.5424 252.881 32.5424C252.119 32.5424 251.441 32.7966 250.847 33.3899C250.254 33.8983 250 34.6611 250 35.5085V48.2204H245.763V28.8983Z" fill="white"/>
<path d="M273.39 45.8476C272.627 46.6951 271.78 47.4578 270.593 47.9663C269.491 48.4747 268.22 48.729 266.949 48.729C265.424 48.729 264.068 48.4747 262.797 47.8815C261.525 47.2883 260.508 46.5256 259.576 45.5934C258.729 44.6612 258.051 43.5595 257.627 42.2883C257.203 41.1018 256.949 39.8307 256.949 38.5595C256.949 37.373 257.203 36.1866 257.627 34.9154C258.136 33.729 258.813 32.6273 259.746 31.6103C260.678 30.5934 261.695 29.8307 262.966 29.2374C264.237 28.6442 265.593 28.39 267.119 28.39C268.475 28.39 269.746 28.6442 270.763 29.1527C271.864 29.6612 272.627 30.3391 273.22 31.1866H273.305V23.1357H277.458V48.1357H273.305V45.8476H273.39ZM261.78 40.9324C262.119 41.6951 262.542 42.373 263.136 42.9663C263.729 43.5595 264.322 43.9832 265.085 44.3222C265.847 44.6612 266.61 44.8307 267.458 44.8307C268.22 44.8307 269.068 44.6612 269.746 44.3222C270.508 43.9832 271.186 43.5595 271.695 42.9663C272.288 42.373 272.712 41.6951 273.051 40.9324C273.39 40.1696 273.559 39.4069 273.559 38.5595C273.559 37.712 273.39 36.9493 273.051 36.1866C272.712 35.4239 272.288 34.7459 271.695 34.1527C271.102 33.5595 270.508 33.1357 269.746 32.7968C268.983 32.4578 268.22 32.2883 267.458 32.2883C266.61 32.2883 265.847 32.4578 265.085 32.7968C264.322 33.1357 263.644 33.5595 263.136 34.1527C262.542 34.7459 262.119 35.4239 261.78 36.1866C261.441 36.9493 261.271 37.712 261.271 38.5595C261.356 39.4069 261.525 40.1696 261.78 40.9324Z" fill="white"/>
<path d="M114.915 28.3901L105.932 48.7291H103.729L99.661 39.4071H99.5763L95.5085 48.7291H93.3051L84.322 28.3901H89.1525L94.8305 41.6952H94.9152L99.661 31.2715L104.322 41.6952H104.407L110.169 28.3901H114.915Z" fill="white"/>
<path d="M135.932 43.9831C134.746 45.4238 133.39 46.6103 131.864 47.373C130.339 48.2204 128.644 48.6442 126.949 48.6442C125.339 48.6442 123.814 48.3899 122.542 47.7967C121.186 47.2035 120.085 46.4408 119.153 45.5086C118.22 44.5764 117.542 43.4747 117.034 42.2035C116.525 41.017 116.356 39.7459 116.356 38.4747C116.356 37.2035 116.61 35.9323 117.034 34.7459C117.542 33.5594 118.22 32.4577 119.153 31.4408C120.085 30.5086 121.186 29.7459 122.542 29.1526C123.898 28.5594 125.339 28.3052 126.949 28.3052C127.966 28.3052 129.153 28.5594 130.254 28.9831C131.441 29.4069 132.458 30.0848 133.559 31.017C134.576 31.9492 135.424 33.0509 136.017 34.4069C136.61 35.7628 136.949 37.373 136.949 39.1526V39.9153H120.932C121.017 41.356 121.695 42.5425 122.797 43.4747C123.983 44.4916 125.339 44.9153 126.78 44.9153C128.983 44.9153 130.847 43.8984 132.373 41.9492L135.932 43.9831ZM132.119 36.5255C131.695 35.0848 130.932 33.9831 129.915 33.1357C128.898 32.373 127.712 31.9492 126.356 31.9492C125 31.9492 123.898 32.373 122.881 33.1357C121.864 33.8984 121.271 35.0001 120.932 36.4408H132.119V36.5255Z" fill="white"/>
<path d="M146.102 23.2207V40.4241C146.102 41.5258 146.186 42.2885 146.441 42.797C146.695 43.3054 147.119 43.7292 147.797 44.1529L150 45.4241L148.136 48.6444C145.847 47.5427 144.237 46.441 143.305 45.4241C142.373 44.4071 141.949 42.9665 141.949 41.1021V23.2207H146.102Z" fill="white"/>
<path d="M171.949 43.9831C170.763 45.4238 169.407 46.6103 167.881 47.373C166.356 48.2204 164.746 48.6442 162.966 48.6442C161.356 48.6442 159.915 48.3899 158.559 47.7967C157.203 47.2035 156.102 46.4408 155.169 45.5086C154.237 44.5764 153.559 43.4747 153.051 42.2035C152.542 41.017 152.288 39.7459 152.288 38.4747C152.288 37.2035 152.542 35.9323 153.051 34.7459C153.559 33.5594 154.237 32.4577 155.169 31.4408C156.102 30.5086 157.203 29.7459 158.559 29.1526C159.915 28.5594 161.356 28.3052 162.966 28.3052C164.068 28.3052 165.169 28.5594 166.271 28.9831C167.458 29.4069 168.475 30.0848 169.491 31.017C170.508 31.9492 171.356 33.0509 171.949 34.4069C172.542 35.7628 172.881 37.373 172.881 39.1526V39.9153H156.864C156.949 41.356 157.627 42.5425 158.814 43.4747C160 44.4916 161.271 44.9153 162.797 44.9153C165 44.9153 166.864 43.8984 168.39 41.9492L171.949 43.9831ZM168.136 36.5255C167.712 35.0848 166.949 33.9831 165.932 33.1357C164.915 32.373 163.729 31.9492 162.373 31.9492C161.017 31.9492 159.915 32.373 158.898 33.1357C157.881 33.8984 157.288 35.0001 156.949 36.4408H168.136V36.5255Z" fill="white"/>
<path d="M177.119 43.8986L180.678 41.9495C181.525 43.8986 183.136 44.9156 185.508 44.9156C187.797 44.9156 188.898 44.0681 188.898 42.8817C188.898 42.2037 188.559 41.6952 187.881 41.2715C187.203 40.8478 186.017 40.424 184.322 40.0003C182.458 39.4918 181.271 39.0681 180 38.2206C178.729 37.3732 178.051 36.0173 178.051 34.2376C178.051 32.4579 178.729 31.0173 180.085 30.0003C181.441 28.8986 183.051 28.3901 185 28.3901C188.39 28.3901 191.017 30.0003 192.458 32.7969L188.983 34.6613C188.136 32.9664 186.78 32.119 185 32.119C183.305 32.119 182.288 32.8817 182.288 34.0681C182.288 34.6613 182.542 35.1698 183.136 35.5935C183.729 35.9325 184.746 36.3562 186.271 36.78L187.712 37.2037C188.051 37.2884 188.475 37.4579 189.068 37.7122C189.661 37.8817 190.085 38.1359 190.424 38.3054C191.017 38.6444 192.034 39.4071 192.373 40.0003C192.797 40.6783 193.136 41.6105 193.136 42.7969C193.136 44.5766 192.458 46.0173 191.017 47.1189C189.576 48.2206 187.797 48.7291 185.508 48.7291C181.186 48.7291 178.305 46.8647 177.119 43.8986Z" fill="white"/>
<path d="M56.356 0L38.8136 16.6102V35.4237L56.356 18.0508V0Z" fill="white"/>
<path d="M37.0339 16.6102L19.4067 0V18.0508L37.0339 35.4237V16.6102Z" fill="white"/>
<path d="M40.339 38.2202L57.7119 55.8473H75.7627L59.1526 38.2202H40.339Z" fill="white"/>
<path d="M59.1526 36.4408L75.7627 18.8984H57.7119L40.339 36.4408H59.1526Z" fill="white"/>
<path d="M16.6102 38.2202L0 55.8473H18.0508L35.4237 38.2202H16.6102Z" fill="white"/>
<path d="M35.4237 36.4408L18.0508 18.8984H0L16.6102 36.4408H35.4237Z" fill="white"/>
<path d="M56.356 56.9491L38.8136 39.5762V58.3897L56.356 74.9999V56.9491Z" fill="white"/>
<path d="M37.0339 39.5762L19.4067 56.9491V74.9999L37.0339 58.3897V39.5762Z" fill="white"/>
</g>
<defs>
<clipPath id="clip0_62_410">
<rect width="277.458" height="75" fill="white"/>
</clipPath>
</defs>
</svg>
