<svg width="104" height="69" viewBox="0 0 104 69" fill="none" xmlns="http://www.w3.org/2000/svg">
<path fill-rule="evenodd" clip-rule="evenodd" d="M26.1416 3.50428C26.1793 3.50157 26.2197 3.5 26.2629 3.5H29.8842C29.9273 3.5 29.9678 3.50157 30.0054 3.50428V51.4053H26.1416V3.50428ZM24.4334 0.906883C24.979 0.628194 25.6283 0.5 26.2629 0.5H29.8842C30.5189 0.5 31.1679 0.628251 31.7134 0.907102C32.1785 1.14488 33.0054 1.74326 33.0054 2.82881V54.4053H23.1416V2.831" fill="#CF3339"/>
<path fill-rule="evenodd" clip-rule="evenodd" d="M19.858 53.9006C20.1869 52.5496 21.343 51.4053 22.8789 51.4053H33.2651C34.8009 51.4053 35.9571 52.5496 36.286 53.9006L38.8213 64.314C39.2778 66.187 38.0792 68.5001 35.8005 68.5001H20.3434C18.0622 68.5001 16.8666 66.1881 17.3225 64.3144L19.858 53.9006C19.858 53.9006 19.858 53.9006 19.858 53.9006ZM22.8769 54.4166C22.8484 54.4412 22.7994 54.5012 22.7729 54.6102L20.2374 65.0238C20.2374 65.0238 20.2375 65.0237 20.2374 65.0238C20.1956 65.1958 20.2369 65.3477 20.2982 65.4391C20.3235 65.4768 20.3427 65.4935 20.3533 65.5001H35.7894C35.8002 65.4933 35.8197 65.4763 35.8452 65.4383C35.9073 65.3456 35.948 65.194 35.9066 65.0242L33.3711 54.6103C33.3446 54.5013 33.2956 54.4412 33.2671 54.4166C33.2605 54.4109 33.2556 54.4074 33.2522 54.4053H22.8918C22.8884 54.4074 22.8834 54.4109 22.8769 54.4166ZM22.8971 54.4024C22.8971 54.4025 22.8966 54.4027 22.8956 54.4031L22.8971 54.4024ZM33.2469 54.4024C33.2469 54.4024 33.2474 54.4026 33.2483 54.4031L33.2469 54.4024ZM35.7799 65.5042C35.7797 65.5037 35.7822 65.5022 35.7877 65.5012C35.7827 65.5041 35.78 65.5046 35.7799 65.5042ZM20.3626 65.504C20.3625 65.5045 20.3598 65.504 20.3548 65.501C20.3602 65.502 20.3627 65.5035 20.3626 65.504Z" fill="#CF3339"/>
<path fill-rule="evenodd" clip-rule="evenodd" d="M33.0054 3.76294C33.0054 16.2405 41.7837 24.7613 52.0521 24.7613V27.7613C39.9585 27.7613 30.0054 17.7239 30.0054 3.76294H33.0054Z" fill="#CF3339"/>
<path fill-rule="evenodd" clip-rule="evenodd" d="M26.1401 3.76294C26.1401 17.8043 14.6969 28.3144 2.68115 28.3144V25.3144C13.0274 25.3144 23.1401 16.1601 23.1401 3.76294H26.1401Z" fill="#CF3339"/>
<path fill-rule="evenodd" clip-rule="evenodd" d="M3.5 35.8204V41H23.14V35.8204H3.5ZM0.5 34.7933C0.5 33.5481 1.57187 32.8204 2.52799 32.8204H26.14V44H2.52799C1.56277 44 0.5 43.2641 0.5 42.0271V34.7933Z" fill="#CF3339"/>
<path fill-rule="evenodd" clip-rule="evenodd" d="M32.1865 32.9675H51.9478V35.9675H32.1865V32.9675Z" fill="#CF3339"/>
<path fill-rule="evenodd" clip-rule="evenodd" d="M31.7969 41H52.0506V44H31.7969V41Z" fill="#CF3339"/>
<path fill-rule="evenodd" clip-rule="evenodd" d="M9.90479 34.3171V24.896H11.9048V34.3171H9.90479Z" fill="#CF3339"/>
<path fill-rule="evenodd" clip-rule="evenodd" d="M16.7725 34.3171V19.8813H18.7725V34.3171H16.7725Z" fill="#CF3339"/>
<path fill-rule="evenodd" clip-rule="evenodd" d="M45.6396 24.9144V34.3355H43.6396V24.9144H45.6396Z" fill="#CF3339"/>
<path fill-rule="evenodd" clip-rule="evenodd" d="M38.7725 19.8997V34.3354H36.7725V19.8997H38.7725Z" fill="#CF3339"/>
<path fill-rule="evenodd" clip-rule="evenodd" d="M72.2872 0.907102C72.8327 0.628251 73.4817 0.5 74.1164 0.5H77.7377C78.3722 0.5 79.0215 0.628194 79.5672 0.906883C80.0304 1.1435 80.8614 1.74257 80.8589 2.831C80.8589 2.83231 80.8589 2.83362 80.8589 2.83493L79.3589 2.82881H80.8589V2.831V54.4053H70.9951V2.82881C70.9951 1.74326 71.822 1.14488 72.2872 0.907102ZM73.9951 3.50428C74.0328 3.50157 74.0732 3.5 74.1164 3.5H77.7377C77.7808 3.5 77.8213 3.50157 77.8589 3.50428V51.4053H73.9951V3.50428Z" fill="#CF3339"/>
<path fill-rule="evenodd" clip-rule="evenodd" d="M70.7332 54.4166C70.7048 54.4412 70.6558 54.5012 70.6292 54.6102L68.0938 65.0239C68.0524 65.1937 68.093 65.3456 68.1551 65.4383C68.1806 65.4763 68.2001 65.4933 68.2109 65.5001H83.647C83.6576 65.4935 83.6768 65.4768 83.7021 65.4391C83.7634 65.3476 83.8048 65.1959 83.7629 65.0238L81.2274 54.6103C81.2009 54.5013 81.1519 54.4412 81.1234 54.4166C81.1169 54.4109 81.1119 54.4074 81.1085 54.4053H70.7481C70.7448 54.4074 70.7398 54.4109 70.7332 54.4166ZM70.7534 54.4024C70.7534 54.4025 70.753 54.4027 70.752 54.4031L70.7534 54.4024ZM81.1032 54.4024C81.1032 54.4024 81.1037 54.4026 81.1047 54.4031L81.1032 54.4024ZM83.6377 65.504C83.6376 65.5035 83.6401 65.502 83.6455 65.501C83.6405 65.504 83.6378 65.5045 83.6377 65.504ZM68.2204 65.5042C68.2203 65.5046 68.2176 65.5041 68.2126 65.5012C68.2181 65.5022 68.2205 65.5037 68.2204 65.5042ZM67.7144 53.9006C68.0433 52.5495 69.1994 51.4053 70.7352 51.4053H81.1214C82.6573 51.4053 83.8134 52.5496 84.1423 53.9006L86.6778 64.3142C87.1337 66.1879 85.9381 68.5001 83.6569 68.5001H68.1998C65.9212 68.5001 64.7227 66.1873 65.1789 64.3142M65.1789 64.3142L67.7144 53.9006C67.7144 53.9006 67.7144 53.9006 67.7144 53.9006" fill="#CF3339"/>
<path fill-rule="evenodd" clip-rule="evenodd" d="M73.9949 3.76294C73.9949 17.7239 64.0418 27.7613 51.9482 27.7613V24.7613C62.2166 24.7613 70.9949 16.2405 70.9949 3.76294H73.9949Z" fill="#CF3339"/>
<path fill-rule="evenodd" clip-rule="evenodd" d="M80.8604 3.76294C80.8604 16.1601 90.9731 25.3144 101.319 25.3144V28.3144C89.3036 28.3144 77.8604 17.8043 77.8604 3.76294H80.8604Z" fill="#CF3339"/>
<path fill-rule="evenodd" clip-rule="evenodd" d="M77.8604 32.8204H101.472C102.429 32.8204 103.5 33.5482 103.5 34.7933V42.0271C103.5 43.2641 102.438 44 101.472 44H77.8604V32.8204ZM80.8604 35.8204V41H100.5V35.8204H80.8604Z" fill="#CF3339"/>
<path fill-rule="evenodd" clip-rule="evenodd" d="M71.8141 35.9675H51.5454V32.9675H71.8141V35.9675Z" fill="#CF3339"/>
<path fill-rule="evenodd" clip-rule="evenodd" d="M51.9482 41H72.2039V44H51.9482V41Z" fill="#CF3339"/>
<path fill-rule="evenodd" clip-rule="evenodd" d="M92.0957 34.3171V24.896H94.0957V34.3171H92.0957Z" fill="#CF3339"/>
<path fill-rule="evenodd" clip-rule="evenodd" d="M85.228 34.3171V19.8813H87.228V34.3171H85.228Z" fill="#CF3339"/>
<path fill-rule="evenodd" clip-rule="evenodd" d="M60.3604 24.9144V34.3355H58.3604V24.9144H60.3604Z" fill="#CF3339"/>
<path fill-rule="evenodd" clip-rule="evenodd" d="M67.228 19.8997V34.3354H65.228V19.8997H67.228Z" fill="#CF3339"/>
<path fill-rule="evenodd" clip-rule="evenodd" d="M52.9482 25.8402V34.4676H50.9482V25.8402H52.9482Z" fill="#CF3339"/>
</svg>
