<svg width="100" height="83" viewBox="0 0 100 83" fill="none" xmlns="http://www.w3.org/2000/svg">
<path fill-rule="evenodd" clip-rule="evenodd" d="M13.1973 3.5L8.54776 56.9223H28.848L24.1992 3.5H13.1973ZM10.2303 2.99022C10.354 1.58347 11.5309 0.5 12.9485 0.5H24.448C25.8623 0.5 27.0423 1.58206 27.1662 2.99022L32.1204 59.9223H8.2516C6.65134 59.9223 5.39677 58.5509 5.5331 56.9604L10.2303 2.99022Z" fill="#CF3339"/>
<path fill-rule="evenodd" clip-rule="evenodd" d="M75.9978 3.50195L73.5379 31.7569L70.5492 31.4967L73.0308 2.99217C73.1546 1.58542 74.3314 0.501953 75.749 0.501953H87.2485C88.6628 0.501953 89.8428 1.58399 89.9667 2.99217L89.9668 2.99354L94.7344 57.7603L94.7347 57.7642C94.8321 58.918 93.9251 59.9242 92.7508 59.9242H69.7109V56.9242H91.6503L86.9997 3.50195H75.9978Z" fill="#CF3339"/>
<path fill-rule="evenodd" clip-rule="evenodd" d="M32.9661 15.0366V21.3151H46.2666V15.0366H32.9661ZM29.9661 14.4667C29.9661 13.1249 31.0543 12.0366 32.3961 12.0366H46.8365C48.1784 12.0366 49.2666 13.1249 49.2666 14.4667V21.885C49.2666 23.2268 48.1784 24.3151 46.8365 24.3151H32.3961C31.0543 24.3151 29.9661 23.2268 29.9661 21.885V14.4667Z" fill="#CF3339"/>
<path fill-rule="evenodd" clip-rule="evenodd" d="M54.3467 15.0366V21.3151H67.6472V15.0366H54.3467ZM51.3467 14.4667C51.3467 13.1249 52.4349 12.0366 53.7768 12.0366H68.2172C69.559 12.0366 70.6472 13.1249 70.6472 14.4667V21.885C70.6472 23.2268 69.559 24.3151 68.2172 24.3151H53.7768C52.4349 24.3151 51.3467 23.2268 51.3467 21.885V14.4667Z" fill="#CF3339"/>
<path fill-rule="evenodd" clip-rule="evenodd" d="M34.3778 30.2243C33.3365 27.3215 32.238 25.0732 31.168 23.7648L33.4903 21.8656C34.8961 23.5846 36.1328 26.232 37.2016 29.2114C38.2834 32.2273 39.2416 35.7241 40.0379 39.2493C41.6247 46.273 42.6063 53.5777 42.6053 57.6005L39.6053 57.5998C39.6062 53.8936 38.6756 46.8333 37.1117 39.9104C36.3327 36.4623 35.406 33.0906 34.3778 30.2243Z" fill="#CF3339"/>
<path fill-rule="evenodd" clip-rule="evenodd" d="M69.7111 59.9222H30.4841V56.9222H69.7111V59.9222Z" fill="#CF3339"/>
<path fill-rule="evenodd" clip-rule="evenodd" d="M48.461 30.2243C47.4197 27.3215 46.3213 25.0732 45.2512 23.7648L47.5735 21.8656C48.9793 23.5846 50.2161 26.232 51.2848 29.2114C52.3667 32.2273 53.3248 35.7241 54.1212 39.2493C55.7079 46.273 56.6896 53.5777 56.6886 57.6005L53.6886 57.5998C53.6895 53.8936 52.7589 46.8333 51.1949 39.9104C50.416 36.4623 49.4892 33.0906 48.461 30.2243Z" fill="#CF3339"/>
<path fill-rule="evenodd" clip-rule="evenodd" d="M55.8905 30.1926C54.8491 27.2897 53.7507 25.0415 52.6807 23.7331L55.0029 21.8339C56.4088 23.5528 57.6455 26.2003 58.7143 29.1796C59.7961 32.1955 60.7543 35.6924 61.5506 39.2176C63.1373 46.2412 64.119 53.5459 64.118 57.5687L61.118 57.568C61.1189 53.8619 60.1883 46.8015 58.6244 39.8787C57.8454 36.4306 56.9186 33.0588 55.8905 30.1926Z" fill="#CF3339"/>
<path fill-rule="evenodd" clip-rule="evenodd" d="M69.9737 30.1926C68.9324 27.2897 67.834 25.0415 66.7639 23.7331L69.0862 21.8339C70.492 23.5528 71.7288 26.2003 72.7975 29.1796C73.8794 32.1955 74.8375 35.6924 75.6339 39.2176C77.2206 46.2412 78.2022 53.5459 78.2013 57.5687L75.2013 57.568C75.2022 53.8619 74.2716 46.8015 72.7076 39.8787C71.9287 36.4306 71.0019 33.0588 69.9737 30.1926Z" fill="#CF3339"/>
<path fill-rule="evenodd" clip-rule="evenodd" d="M74.0287 10.3193H26.1055V7.31934H74.0287V10.3193Z" fill="#CF3339"/>
<path fill-rule="evenodd" clip-rule="evenodd" d="M11.8131 70.4577C8.77811 68.6491 5.93906 66.9573 0.109619 66.9573V63.9573C6.75643 63.9573 10.1603 65.9805 13.3631 67.889L13.3767 67.8971C16.4118 69.7058 19.2514 71.3979 25.0822 71.3979C30.9117 71.3979 33.7507 69.7061 36.7857 67.8975L36.8 67.889C40.0028 65.9804 43.4071 63.9573 50.0548 63.9573C56.7025 63.9573 60.1068 65.9804 63.3097 67.889L63.3239 67.8975C66.3589 69.7061 69.198 71.3979 75.0274 71.3979C80.8571 71.3979 83.6966 69.7059 86.732 67.8973L86.7459 67.889C89.9489 65.9805 93.3532 63.9573 100 63.9573V66.9573C94.1703 66.9573 91.3308 68.6492 88.2954 70.4579L88.2815 70.4662C85.0785 72.3747 81.6742 74.3979 75.0274 74.3979C68.3806 74.3979 64.9767 72.3747 61.774 70.4662L61.7603 70.458C58.7252 68.6494 55.8856 66.9573 50.0548 66.9573C44.224 66.9573 41.3844 68.6494 38.3493 70.458L38.3357 70.4662C35.1329 72.3747 31.729 74.3979 25.0822 74.3979C18.4345 74.3979 15.0302 72.3747 11.8274 70.4662L11.8131 70.4577Z" fill="#CF3339"/>
<path fill-rule="evenodd" clip-rule="evenodd" d="M11.7035 78.968C8.66849 77.1595 5.82944 75.4677 0 75.4677V72.4677C6.64681 72.4677 10.0507 74.4909 13.2535 76.3994L13.2671 76.4075C16.3022 78.2162 19.1418 79.9083 24.9726 79.9083C30.802 79.9083 33.6411 78.2165 36.6761 76.4079L36.6903 76.3994C39.8932 74.4908 43.2975 72.4677 49.9452 72.4677C56.5929 72.4677 59.9972 74.4908 63.2001 76.3994L63.2143 76.4079C66.2493 78.2165 69.0884 79.9083 74.9178 79.9083C80.7475 79.9083 83.587 78.2163 86.6224 76.4076L86.6363 76.3994C89.8393 74.4908 93.2436 72.4677 99.8904 72.4677V75.4677C94.0607 75.4677 91.2212 77.1596 88.1858 78.9683L88.1719 78.9766C84.9689 80.8851 81.5646 82.9083 74.9178 82.9083C68.271 82.9083 64.8671 80.8851 61.6643 78.9765L61.6507 78.9684C58.6156 77.1597 55.776 75.4677 49.9452 75.4677C44.1144 75.4677 41.2748 77.1597 38.2397 78.9684L38.2261 78.9765C35.0233 80.8851 31.6194 82.9083 24.9726 82.9083C18.3249 82.9083 14.9206 80.8851 11.7177 78.9765L11.7035 78.968Z" fill="#CF3339"/>
</svg>
