<svg width="80" height="60" viewBox="0 0 80 60" fill="none" xmlns="http://www.w3.org/2000/svg">
<path d="M56 18C56 21.3137 53.3137 24 50 24C46.6863 24 44 21.3137 44 18C44 14.6863 46.6863 12 50 12C53.3137 12 56 14.6863 56 18Z" fill="#808080"/>
<path fill-rule="evenodd" clip-rule="evenodd" d="M75 2.5H5C3.61929 2.5 2.5 3.61929 2.5 5V55C2.5 56.3807 3.61929 57.5 5 57.5H75C76.3807 57.5 77.5 56.3807 77.5 55V5C77.5 3.61929 76.3807 2.5 75 2.5ZM5 0C2.23858 0 0 2.23858 0 5V55C0 57.7614 2.23858 60 5 60H75C77.7614 60 80 57.7614 80 55V5C80 2.23858 77.7614 0 75 0H5Z" fill="#808080"/>
<path d="M23 26L2.5 43.5V57.5H77.5V54.5V48L61 31.5L44.5 48L23 26Z" fill="#808080"/>
<path fill-rule="evenodd" clip-rule="evenodd" d="M23.0309 25.3164L44.5041 47.289L61 30.7931L78 47.7931V58.0002H2V43.2696L23.0309 25.3164ZM3 43.7308V57.0002H77V48.2073L61 32.2073L44.4959 48.7114L22.9691 26.684L3 43.7308Z" fill="#808080"/>
</svg>
