<svg width="104" height="103" viewBox="0 0 104 103" fill="none" xmlns="http://www.w3.org/2000/svg">
<path fill-rule="evenodd" clip-rule="evenodd" d="M37.0979 50.7381C37.0974 50.7381 37.1005 50.7336 37.1085 50.7248C37.1024 50.7337 37.0984 50.7381 37.0979 50.7381ZM37.5488 50.4111C37.8366 50.2473 38.2461 50.0601 38.7999 49.861C40.3428 49.3065 42.6596 48.781 45.6237 48.3304C51.5287 47.4329 59.7389 46.8713 68.8435 46.8713C77.9481 46.8713 86.1583 47.4329 92.0633 48.3304C95.0274 48.781 97.3442 49.3065 98.8871 49.861C99.441 50.0601 99.8505 50.2473 100.138 50.4111C99.8505 50.5749 99.441 50.7622 98.8871 50.9612C97.3442 51.5157 95.0274 52.0413 92.0633 52.4918C86.1583 53.3894 77.9481 53.9509 68.8435 53.9509C59.7389 53.9509 51.5287 53.3894 45.6237 52.4918C42.6596 52.0413 40.3428 51.5157 38.7999 50.9612C38.2461 50.7622 37.8366 50.5749 37.5488 50.4111ZM100.589 50.7381C100.589 50.7381 100.585 50.7337 100.579 50.7248C100.587 50.7336 100.59 50.7381 100.589 50.7381ZM100.579 50.0975C100.585 50.0886 100.589 50.0841 100.589 50.0842C100.59 50.0842 100.587 50.0886 100.579 50.0975ZM37.1085 50.0975C37.1005 50.0886 37.0974 50.0842 37.0979 50.0842C37.0984 50.0841 37.1024 50.0885 37.1085 50.0975ZM45.1729 45.3645C51.2683 44.438 59.6363 43.8713 68.8435 43.8713C78.0507 43.8713 86.4188 44.438 92.5141 45.3645C95.5501 45.826 98.089 46.3864 99.9017 47.0378C100.799 47.3603 101.608 47.7361 102.221 48.1913C102.796 48.6184 103.5 49.3475 103.5 50.4111C103.5 51.4748 102.796 52.2038 102.221 52.631C101.608 53.0862 100.799 53.462 99.9017 53.7845C98.089 54.4359 95.5501 54.9963 92.5141 55.4578C86.4188 56.3843 78.0507 56.9509 68.8435 56.9509C59.6363 56.9509 51.2683 56.3843 45.1729 55.4578C42.1369 54.9963 39.598 54.4359 37.7853 53.7845C36.888 53.462 36.079 53.0862 35.4662 52.631C34.8912 52.2038 34.187 51.4748 34.187 50.4111C34.187 49.3475 34.8912 48.6184 35.4662 48.1913C36.079 47.7361 36.888 47.3603 37.7853 47.0378C39.598 46.3864 42.1369 45.826 45.1729 45.3645Z" fill="#CF3339"/>
<path fill-rule="evenodd" clip-rule="evenodd" d="M28.265 6.44752C28.2645 6.4475 28.2684 6.44285 28.2784 6.43366C28.2705 6.44295 28.2655 6.44755 28.265 6.44752ZM29.1211 5.97878C29.2295 5.93447 29.3488 5.88857 29.4798 5.84142C30.6673 5.41401 32.4698 5.0028 34.7986 4.64827C39.4328 3.94277 45.8875 3.5 53.0532 3.5C60.2189 3.5 66.6737 3.94277 71.3079 4.64827C73.6367 5.0028 75.4392 5.41401 76.6267 5.84142C76.7577 5.88857 76.877 5.93447 76.9854 5.97878C76.877 6.02309 76.7577 6.06899 76.6267 6.11614C75.4392 6.54355 73.6367 6.95476 71.3079 7.30929C66.6737 8.01479 60.2189 8.45756 53.0532 8.45756C45.8875 8.45756 39.4328 8.01479 34.7986 7.30929C32.4698 6.95476 30.6673 6.54355 29.4798 6.11614C29.3488 6.06899 29.2295 6.02309 29.1211 5.97878ZM77.8415 6.44753C77.841 6.44755 77.8359 6.44296 77.828 6.43366C77.838 6.44285 77.842 6.4475 77.8415 6.44753ZM77.828 5.5239C77.8359 5.5146 77.841 5.51001 77.8415 5.51003C77.842 5.51006 77.8381 5.51471 77.828 5.5239ZM28.2784 5.5239C28.2684 5.51471 28.2645 5.51006 28.265 5.51004C28.2655 5.51001 28.2705 5.51461 28.2784 5.5239ZM34.3471 1.68244C39.1719 0.947912 45.7848 0.5 53.0532 0.5C60.3217 0.5 66.9345 0.947912 71.7594 1.68244C74.1602 2.04794 76.1851 2.49408 77.6427 3.0187C78.3625 3.27778 79.0336 3.58708 79.5529 3.97344C80.0348 4.33197 80.6885 4.98946 80.6885 5.97878C80.6885 6.9681 80.0348 7.62559 79.5529 7.98412C79.0336 8.37048 78.3625 8.67978 77.6427 8.93886C76.1851 9.46348 74.1602 9.90962 71.7594 10.2751C66.9345 11.0096 60.3217 11.4576 53.0532 11.4576C45.7848 11.4576 39.1719 11.0096 34.3471 10.2751C31.9463 9.90962 29.9214 9.46348 28.4638 8.93886C27.744 8.67978 27.0729 8.37048 26.5536 7.98412C26.0717 7.62559 25.418 6.9681 25.418 5.97878C25.418 4.98946 26.0717 4.33197 26.5536 3.97344C27.0729 3.58708 27.744 3.27778 28.4638 3.0187C29.9214 2.49408 31.9463 2.04794 34.3471 1.68244Z" fill="#CF3339"/>
<path fill-rule="evenodd" clip-rule="evenodd" d="M3.32766 32.8718C3.32687 32.8718 3.33216 32.8657 3.34589 32.8539C3.33532 32.866 3.32845 32.8719 3.32766 32.8718ZM4.31169 32.366C4.42092 32.3246 4.53975 32.2819 4.6687 32.2384C5.94921 31.8059 7.88311 31.3927 10.3696 31.0375C15.32 30.3303 22.2086 29.8872 29.8515 29.8872C37.4943 29.8872 44.3829 30.3303 49.3333 31.0375C51.8198 31.3927 53.7537 31.8059 55.0342 32.2384C55.1632 32.2819 55.282 32.3246 55.3912 32.366C55.282 32.4074 55.1632 32.45 55.0342 32.4936C53.7537 32.9261 51.8198 33.3393 49.3333 33.6945C44.3829 34.4017 37.4943 34.8448 29.8515 34.8448C22.2086 34.8448 15.32 34.4017 10.3696 33.6945C7.88311 33.3393 5.94921 32.9261 4.6687 32.4936C4.53975 32.45 4.42092 32.4074 4.31169 32.366ZM56.3753 32.8718C56.3745 32.8719 56.3676 32.866 56.357 32.8539C56.3708 32.8658 56.376 32.8718 56.3753 32.8718ZM56.357 31.8781C56.3676 31.866 56.3745 31.8601 56.3753 31.8601C56.376 31.8602 56.3707 31.8662 56.357 31.8781ZM3.3459 31.8781C3.33216 31.8662 3.32687 31.8602 3.32766 31.8601C3.32845 31.8601 3.33532 31.866 3.3459 31.8781ZM9.94537 28.0676C15.0752 27.3348 22.1123 26.8872 29.8515 26.8872C37.5906 26.8872 44.6277 27.3348 49.7575 28.0676C52.3111 28.4324 54.456 28.8766 55.9942 29.3961C56.7535 29.6526 57.4548 29.9566 57.9957 30.3342C58.482 30.6737 59.2029 31.3331 59.2029 32.366C59.2029 33.3989 58.482 34.0583 57.9957 34.3978C57.4548 34.7754 56.7535 35.0794 55.9942 35.3358C54.456 35.8554 52.3111 36.2995 49.7575 36.6643C44.6277 37.3972 37.5906 37.8448 29.8515 37.8448C22.1123 37.8448 15.0752 37.3972 9.94537 36.6643C7.39177 36.2995 5.24692 35.8554 3.70872 35.3358C2.94945 35.0794 2.24811 34.7754 1.7072 34.3978C1.22089 34.0583 0.5 33.3989 0.5 32.366C0.5 31.3331 1.22089 30.6737 1.7072 30.3342C2.24811 29.9566 2.94945 29.6526 3.70872 29.3961C5.24692 28.8766 7.39177 28.4324 9.94537 28.0676Z" fill="#CF3339"/>
<path fill-rule="evenodd" clip-rule="evenodd" d="M45.6233 97.9849C51.5281 98.8826 59.7383 99.4443 68.8435 99.4443C77.9487 99.4443 86.1589 98.8826 92.0637 97.9849C95.0277 97.5343 97.3444 97.0087 98.8873 96.4542C99.6677 96.1738 100.162 95.9167 100.432 95.7158C100.517 95.6525 100.561 95.6105 100.579 95.5906C100.555 95.6254 100.5 95.7286 100.5 95.9045H103.5C103.5 96.9682 102.796 97.6972 102.221 98.1242C101.608 98.5793 100.799 98.955 99.9019 99.2775C98.0893 99.9288 95.5505 100.489 92.5146 100.951C86.4194 101.877 78.0513 102.444 68.8435 102.444C59.6357 102.444 51.2676 101.877 45.1724 100.951C42.1365 100.489 39.5977 99.9288 37.7852 99.2775C36.8879 98.955 36.079 98.5793 35.4662 98.1242C34.8913 97.6972 34.187 96.9682 34.187 95.9045H37.187C37.187 95.7286 37.1321 95.6254 37.1084 95.5906C37.1265 95.6105 37.1698 95.6525 37.255 95.7158C37.5255 95.9167 38.0193 96.1738 38.7997 96.4542C40.3426 97.0087 42.6593 97.5343 45.6233 97.9849ZM37.0978 95.5773C37.0983 95.5772 37.1023 95.5817 37.1084 95.5906C37.1004 95.5818 37.0973 95.5773 37.0978 95.5773ZM100.589 95.5773C100.59 95.5773 100.587 95.5818 100.579 95.5906C100.585 95.5817 100.589 95.5772 100.589 95.5773Z" fill="#CF3339"/>
<path fill-rule="evenodd" clip-rule="evenodd" d="M103.5 50.4111V95.9045H100.5V50.4111H103.5Z" fill="#CF3339"/>
<path fill-rule="evenodd" clip-rule="evenodd" d="M10.3697 76.0682C15.3201 76.7755 22.2087 77.2189 29.8515 77.2189C31.8397 77.2189 33.7764 77.1899 35.6405 77.1321L35.7335 80.1306C33.8363 80.1895 31.8685 80.2189 29.8515 80.2189C22.1123 80.2189 15.0752 79.771 9.94532 79.038C7.39172 78.6731 5.24691 78.2289 3.70876 77.7095C2.94953 77.4531 2.24824 77.1492 1.70737 76.7717C1.22127 76.4324 0.5 75.7731 0.5 74.7401H3.5C3.5 74.4616 3.39018 74.3026 3.34571 74.2518C3.36077 74.2648 3.38593 74.2848 3.42432 74.3116C3.62546 74.452 4.01852 74.6476 4.66864 74.8672C5.94921 75.2997 7.88315 75.7129 10.3697 76.0682ZM3.32743 74.2338C3.32822 74.2337 3.33511 74.2397 3.34571 74.2518C3.33194 74.2399 3.32664 74.2338 3.32743 74.2338Z" fill="#CF3339"/>
<path fill-rule="evenodd" clip-rule="evenodd" d="M37.187 50.4111V95.9045H34.187V50.4111H37.187Z" fill="#CF3339"/>
<path fill-rule="evenodd" clip-rule="evenodd" d="M3.5 32.366V74.74H0.5V32.366H3.5Z" fill="#CF3339"/>
<path fill-rule="evenodd" clip-rule="evenodd" d="M56.2031 45.106V32.366H59.2031V45.106H56.2031Z" fill="#CF3339"/>
<path fill-rule="evenodd" clip-rule="evenodd" d="M25.4155 28.3874V6.37939H28.4155V28.3874H25.4155Z" fill="#CF3339"/>
<path fill-rule="evenodd" clip-rule="evenodd" d="M77.6885 45.1061V5.97876H80.6885V45.1061H77.6885Z" fill="#CF3339"/>
<path fill-rule="evenodd" clip-rule="evenodd" d="M11.0186 34.3143C11.847 34.3143 12.5186 34.9859 12.5186 35.8143V71.6313C12.5186 72.4597 11.847 73.1313 11.0186 73.1313C10.1901 73.1313 9.51855 72.4597 9.51855 71.6313V35.8143C9.51855 34.9859 10.1901 34.3143 11.0186 34.3143Z" fill="#CF3339"/>
<path fill-rule="evenodd" clip-rule="evenodd" d="M22.4243 34.8447C23.2527 34.8447 23.9243 35.5163 23.9243 36.3447V72.1617C23.9243 72.9901 23.2527 73.6617 22.4243 73.6617C21.5959 73.6617 20.9243 72.9901 20.9243 72.1617V36.3447C20.9243 35.5163 21.5959 34.8447 22.4243 34.8447Z" fill="#CF3339"/>
<path fill-rule="evenodd" clip-rule="evenodd" d="M69.374 54.4125C70.2025 54.4125 70.874 55.084 70.874 55.9125V94.8435C70.874 95.6719 70.2025 96.3435 69.374 96.3435C68.5456 96.3435 67.874 95.6719 67.874 94.8435V55.9125C67.874 55.084 68.5456 54.4125 69.374 54.4125Z" fill="#CF3339"/>
<path fill-rule="evenodd" clip-rule="evenodd" d="M82.2388 54.1818C83.0672 54.1818 83.7388 54.8533 83.7388 55.6818V94.6128C83.7388 95.4412 83.0672 96.1128 82.2388 96.1128C81.4103 96.1128 80.7388 95.4412 80.7388 94.6128V55.6818C80.7388 54.8533 81.4103 54.1818 82.2388 54.1818Z" fill="#CF3339"/>
<path fill-rule="evenodd" clip-rule="evenodd" d="M10.0493 44.8408C10.0493 44.0124 10.7209 43.3408 11.5493 43.3408H17.3849C18.2133 43.3408 18.8849 44.0124 18.8849 44.8408C18.8849 45.6692 18.2133 46.3408 17.3849 46.3408H11.5493C10.7209 46.3408 10.0493 45.6692 10.0493 44.8408Z" fill="#CF3339"/>
<path fill-rule="evenodd" clip-rule="evenodd" d="M9.78369 54.5225C9.78369 53.694 10.4553 53.0225 11.2837 53.0225H17.1192C17.9477 53.0225 18.6192 53.694 18.6192 54.5225C18.6192 55.3509 17.9477 56.0225 17.1192 56.0225H11.2837C10.4553 56.0225 9.78369 55.3509 9.78369 54.5225Z" fill="#CF3339"/>
<path fill-rule="evenodd" clip-rule="evenodd" d="M9.78369 64.0717C9.78369 63.2432 10.4553 62.5717 11.2837 62.5717H17.1192C17.9477 62.5717 18.6192 63.2432 18.6192 64.0717C18.6192 64.9001 17.9477 65.5717 17.1192 65.5717H11.2837C10.4553 65.5717 9.78369 64.9001 9.78369 64.0717Z" fill="#CF3339"/>
<path fill-rule="evenodd" clip-rule="evenodd" d="M68.1396 64.8673C68.1396 64.0389 68.8112 63.3673 69.6396 63.3673H77.8625C78.6909 63.3673 79.3625 64.0389 79.3625 64.8673C79.3625 65.6957 78.6909 66.3673 77.8625 66.3673H69.6396C68.8112 66.3673 68.1396 65.6957 68.1396 64.8673Z" fill="#CF3339"/>
<path fill-rule="evenodd" clip-rule="evenodd" d="M68.1396 76.4642C68.1396 75.6358 68.8112 74.9642 69.6396 74.9642H77.8625C78.6909 74.9642 79.3625 75.6358 79.3625 76.4642C79.3625 77.2927 78.6909 77.9642 77.8625 77.9642H69.6396C68.8112 77.9642 68.1396 77.2927 68.1396 76.4642Z" fill="#CF3339"/>
<path fill-rule="evenodd" clip-rule="evenodd" d="M68.0063 87.9443C68.0063 87.1159 68.6779 86.4443 69.5063 86.4443H77.7292C78.5576 86.4443 79.2292 87.1159 79.2292 87.9443C79.2292 88.7728 78.5576 89.4443 77.7292 89.4443H69.5063C68.6779 89.4443 68.0063 88.7728 68.0063 87.9443Z" fill="#CF3339"/>
</svg>
