<svg width="104" height="68" viewBox="0 0 104 68" fill="none" xmlns="http://www.w3.org/2000/svg">
<path fill-rule="evenodd" clip-rule="evenodd" d="M19.8991 36.4159C17.5503 36.4159 15.6475 38.3188 15.6475 40.6676V60.3959C15.6475 62.7447 17.5503 64.6476 19.8991 64.6476C22.246 64.6476 24.1508 62.7443 24.1508 60.3959V40.6676C24.1508 38.3188 22.248 36.4159 19.8991 36.4159ZM12.6475 40.6676C12.6475 36.6619 15.8935 33.4159 19.8991 33.4159C23.9048 33.4159 27.1508 36.6619 27.1508 40.6676V60.3959C27.1508 64.4019 23.9021 67.6475 19.8991 67.6475C15.8935 67.6475 12.6475 64.4015 12.6475 60.3959V40.6676Z" fill="#CF3339"/>
<path fill-rule="evenodd" clip-rule="evenodd" d="M24.1509 38.3048H79.7834V62.7609H24.1509V38.3048ZM27.1509 41.3048V59.7609H76.7834V41.3048H27.1509Z" fill="#CF3339"/>
<path fill-rule="evenodd" clip-rule="evenodd" d="M0.5 38.3048H15.5831V62.7609H0.5V38.3048ZM3.5 41.3048V59.7609H12.5831V41.3048H3.5Z" fill="#CF3339"/>
<path fill-rule="evenodd" clip-rule="evenodd" d="M41.7534 22.7246H62.3766V40.9229H41.7534V22.7246ZM44.7534 25.7246V37.9229H59.3766V25.7246H44.7534Z" fill="#CF3339"/>
<path fill-rule="evenodd" clip-rule="evenodd" d="M40.7685 19.1447C39.7794 19.1447 38.9785 19.9455 38.9785 20.9346C38.9785 21.9237 39.7794 22.7246 40.7685 22.7246H62.855C63.8434 22.7246 64.6449 21.9221 64.6449 20.9346C64.6449 19.9455 63.8441 19.1447 62.855 19.1447H40.7685ZM35.9785 20.9346C35.9785 18.2887 38.1225 16.1447 40.7685 16.1447H62.855C65.5009 16.1447 67.6449 18.2887 67.6449 20.9346C67.6449 23.5776 65.5016 25.7246 62.855 25.7246H40.7685C38.1225 25.7246 35.9785 23.5806 35.9785 20.9346Z" fill="#CF3339"/>
<path fill-rule="evenodd" clip-rule="evenodd" d="M76.8501 40.6676C76.8501 36.6619 80.0961 33.4159 84.1018 33.4159C88.1074 33.4159 91.3535 36.6619 91.3535 40.6676V60.3959C91.3535 64.4015 88.1074 67.6475 84.1018 67.6475C80.0988 67.6475 76.8501 64.4019 76.8501 60.3959V40.6676ZM84.1018 36.4159C81.753 36.4159 79.8501 38.3188 79.8501 40.6676V60.3959C79.8501 62.7443 81.7549 64.6476 84.1018 64.6476C86.4506 64.6476 88.3535 62.7447 88.3535 60.3959V40.6676C88.3535 38.3188 86.4506 36.4159 84.1018 36.4159Z" fill="#CF3339"/>
<path fill-rule="evenodd" clip-rule="evenodd" d="M103.5 62.7482L88.4169 62.7482L88.4169 38.2921L103.5 38.2921L103.5 62.7482ZM100.5 59.7482L100.5 41.2921L91.4169 41.2921L91.4169 59.7482L100.5 59.7482Z" fill="#CF3339"/>
<path fill-rule="evenodd" clip-rule="evenodd" d="M29.2285 3.5C28.2393 3.5 27.4385 4.30087 27.4385 5.28997C27.4385 6.27907 28.2393 7.07993 29.2285 7.07993H74.7726C75.7594 7.07993 76.5626 6.27677 76.5626 5.28997C76.5626 4.30086 75.7617 3.5 74.7726 3.5H29.2285ZM24.4385 5.28997C24.4385 2.644 26.5825 0.5 29.2285 0.5H74.7726C77.4186 0.5 79.5626 2.64401 79.5626 5.28997C79.5626 7.93363 77.4163 10.0799 74.7726 10.0799H29.2285C26.5825 10.0799 24.4385 7.93594 24.4385 5.28997Z" fill="#CF3339"/>
<path fill-rule="evenodd" clip-rule="evenodd" d="M40.7808 7.31006H64.2439L58.0801 19.1446H46.9446L40.7808 7.31006ZM45.7258 10.3101L48.7646 16.1446H56.26L59.2989 10.3101H45.7258Z" fill="#CF3339"/>
</svg>
