<svg width="100" height="100" viewBox="0 0 100 100" fill="none" xmlns="http://www.w3.org/2000/svg">
<path fill-rule="evenodd" clip-rule="evenodd" d="M10.7244 51.709V67.3106H90.3154V51.709H10.7244ZM7.72437 51.1391C7.72437 49.7972 8.81261 48.709 10.1544 48.709H90.8853C92.2271 48.709 93.3154 49.7972 93.3154 51.1391V67.8805C93.3154 69.2223 92.2271 70.3106 90.8853 70.3106H10.1544C8.81261 70.3106 7.72437 69.2223 7.72437 67.8805V51.1391Z" fill="#CF3339"/>
<path fill-rule="evenodd" clip-rule="evenodd" d="M17.0027 32.9215V48.7091H49.3457V32.9215H17.0027ZM14.0027 32.3516C14.0027 31.0098 15.0909 29.9215 16.4328 29.9215H49.9156C51.2574 29.9215 52.3457 31.0098 52.3457 32.3516V51.7091H14.0027V32.3516Z" fill="#CF3339"/>
<path d="M28.5236 39.9319H23.8732C23.2054 39.9319 22.6641 40.4732 22.6641 41.141C22.6641 41.8088 23.2054 42.3501 23.8732 42.3501H28.5236C29.1914 42.3501 29.7327 41.8088 29.7327 41.141C29.7327 40.4732 29.1914 39.9319 28.5236 39.9319Z" fill="#CF3339"/>
<path fill-rule="evenodd" clip-rule="evenodd" d="M21.1641 41.141C21.1641 39.6448 22.3769 38.4319 23.8732 38.4319H28.5236C30.0198 38.4319 31.2327 39.6448 31.2327 41.141C31.2327 42.6372 30.0198 43.8501 28.5236 43.8501H23.8732C22.3769 43.8501 21.1641 42.6372 21.1641 41.141Z" fill="#CF3339"/>
<path d="M42.4747 39.9319H37.8243C37.1565 39.9319 36.6152 40.4732 36.6152 41.141C36.6152 41.8088 37.1565 42.3501 37.8243 42.3501H42.4747C43.1425 42.3501 43.6838 41.8088 43.6838 41.141C43.6838 40.4732 43.1425 39.9319 42.4747 39.9319Z" fill="#CF3339"/>
<path fill-rule="evenodd" clip-rule="evenodd" d="M35.1152 41.141C35.1152 39.6448 36.3281 38.4319 37.8243 38.4319H42.4747C43.971 38.4319 45.1838 39.6448 45.1838 41.141C45.1838 42.6372 43.971 43.8501 42.4747 43.8501H37.8243C36.3281 43.8501 35.1152 42.6372 35.1152 41.141Z" fill="#CF3339"/>
<path fill-rule="evenodd" clip-rule="evenodd" d="M11.8129 86.8321C8.77787 85.0235 5.93882 83.3317 0.109375 83.3317V80.3317C6.75619 80.3317 10.1601 82.3549 13.3628 84.2634L13.3764 84.2715C16.4116 86.0802 19.2512 87.7723 25.082 87.7723C30.9114 87.7723 33.7505 86.0805 36.7855 84.2719L36.7997 84.2634C40.0026 82.3548 43.4069 80.3317 50.0546 80.3317C56.7023 80.3317 60.1066 82.3548 63.3095 84.2634L63.3237 84.2719C66.3587 86.0805 69.1978 87.7723 75.0272 87.7723C80.8569 87.7723 83.6964 86.0803 86.7318 84.2717L86.7457 84.2634C89.9487 82.3549 93.3531 80.3317 99.9998 80.3317V83.3317C94.1702 83.3317 91.3306 85.0236 88.2952 86.8323L88.2813 86.8406C85.0783 88.7491 81.674 90.7723 75.0272 90.7723C68.3804 90.7723 64.9765 88.7491 61.7738 86.8405L61.7602 86.8324C58.725 85.0238 55.8854 83.3317 50.0546 83.3317C44.2238 83.3317 41.3842 85.0238 38.3491 86.8324L38.3355 86.8405C35.1327 88.7491 31.7288 90.7723 25.082 90.7723C18.4343 90.7723 15.03 88.7491 11.8271 86.8405L11.8129 86.8321Z" fill="#CF3339"/>
<path fill-rule="evenodd" clip-rule="evenodd" d="M11.7035 95.3404C8.6685 93.5318 5.82945 91.84 0 91.84V88.84C6.64682 88.84 10.0507 90.8632 13.2535 92.7717L13.2671 92.7798C16.3022 94.5885 19.1418 96.2806 24.9726 96.2806C30.8021 96.2806 33.6411 94.5888 36.6761 92.7802L36.6904 92.7717C39.8932 90.8631 43.2975 88.84 49.9452 88.84C56.5929 88.84 59.9972 90.8631 63.2001 92.7717L63.2143 92.7802C66.2494 94.5888 69.0884 96.2806 74.9178 96.2806C80.7475 96.2806 83.5871 94.5886 86.6225 92.78L86.6363 92.7717C89.8393 90.8632 93.2437 88.84 99.8905 88.84V91.84C94.0608 91.84 91.2213 93.5319 88.1859 95.3406L88.172 95.3489C84.969 97.2574 81.5646 99.2806 74.9178 99.2806C68.271 99.2806 64.8671 97.2574 61.6644 95.3488L61.6508 95.3407C58.6156 93.5321 55.7761 91.84 49.9452 91.84C44.1144 91.84 41.2749 93.5321 38.2397 95.3407L38.2261 95.3488C35.0233 97.2574 31.6194 99.2806 24.9726 99.2806C18.3249 99.2806 14.9206 97.2574 11.7178 95.3488L11.7035 95.3404Z" fill="#CF3339"/>
<path fill-rule="evenodd" clip-rule="evenodd" d="M18.3511 68.6245V87.2261H15.3511V68.6245H18.3511Z" fill="#CF3339"/>
<path fill-rule="evenodd" clip-rule="evenodd" d="M33.0461 68.9966V88.3422H30.0461V68.9966H33.0461Z" fill="#CF3339"/>
<path fill-rule="evenodd" clip-rule="evenodd" d="M85.3926 68.7622V87.3638H82.3926V68.7622H85.3926Z" fill="#CF3339"/>
<path fill-rule="evenodd" clip-rule="evenodd" d="M70.6982 69.1342V88.4798H67.6982V69.1342H70.6982Z" fill="#CF3339"/>
<path fill-rule="evenodd" clip-rule="evenodd" d="M64.1582 12.9529C64.6538 12.5846 65.2438 12.4359 65.8179 12.4359H77.6318C78.3091 12.4359 78.8312 12.7986 79.1259 13.09C79.4605 13.4207 79.7492 13.8936 79.8446 14.4707L85.955 51.709H57.1245L63.234 14.4767C63.2341 14.4757 63.2343 14.4748 63.2344 14.4738C63.3321 13.8725 63.652 13.329 64.1582 12.9529ZM66.1167 15.4359L60.6569 48.709H82.4227L76.9629 15.4359H66.1167Z" fill="#CF3339"/>
<path fill-rule="evenodd" clip-rule="evenodd" d="M69.827 3.49965C69.827 3.49951 69.8299 3.49949 69.836 3.5C69.8302 3.50005 69.8271 3.49979 69.827 3.49965ZM70.535 3.75178C70.8618 3.91498 71.2545 4.1571 71.6755 4.48272C72.3795 5.0273 73.0415 5.7126 73.4927 6.41773C73.9546 7.13935 74.1079 7.73888 74.0594 8.17464L74.0594 8.17478C73.9257 9.37733 73.6444 9.63162 73.6356 9.63957C73.6315 9.64324 73.6291 9.64612 73.6263 9.64868C73.6103 9.66381 73.5837 9.66779 73.142 9.75756L73.7396 12.6974C73.7564 12.694 73.7808 12.6901 73.8119 12.685C74.0963 12.6387 74.9406 12.5013 75.6429 11.8691C76.4413 11.1502 76.8715 10.0307 77.041 8.5063C77.1943 7.12846 76.6808 5.8337 76.0195 4.80053C75.3477 3.75083 74.4302 2.82082 73.511 2.10979C72.6128 1.41498 71.587 0.8322 70.6536 0.605043C70.2053 0.495941 69.5716 0.417121 68.9492 0.657274C68.187 0.951331 67.7303 1.60733 67.6249 2.3604M70.535 3.75178C70.5332 3.80509 70.5314 3.86002 70.5295 3.91637C70.5182 4.25361 70.5053 4.64176 70.4811 5.0381C70.4209 6.02036 70.2841 7.23764 69.8351 8.34837L69.8349 8.34893C69.6428 8.82356 69.6192 9.10387 69.6281 9.23936C69.6352 9.34686 69.661 9.37762 69.6805 9.40006C69.7179 9.4432 69.8194 9.53151 70.0551 9.62646C70.2897 9.72096 70.6009 9.79915 70.9867 9.8541L70.5637 12.8241C69.5678 12.6823 68.2642 12.3456 67.4144 11.3659C66.4287 10.2297 66.4409 8.73864 67.0537 7.22405M67.6248 2.3607C67.5725 2.73448 67.5538 3.16832 67.5397 3.56507L67.6248 2.3607ZM67.5397 3.56507C67.5365 3.65574 67.5334 3.74623 67.5304 3.83683L67.5397 3.56507ZM67.5304 3.83683C67.5193 4.1699 67.5081 4.50442 67.4867 4.85479L67.5304 3.83683ZM67.4867 4.85479C67.4315 5.75614 67.3154 6.57645 67.054 7.22348L67.4867 4.85479Z" fill="#CF3339"/>
<path fill-rule="evenodd" clip-rule="evenodd" d="M82.5437 36.799L59.6637 50.5642L58.1172 47.9936L80.9971 34.2284L82.5437 36.799Z" fill="#CF3339"/>
<path fill-rule="evenodd" clip-rule="evenodd" d="M65.1037 16.7461L82.9613 34.6036L80.8399 36.7249L62.9824 18.8674L65.1037 16.7461Z" fill="#CF3339"/>
<path fill-rule="evenodd" clip-rule="evenodd" d="M61.9274 34.619L84.8074 48.3842L83.2608 50.9548L60.3809 37.1897L61.9274 34.619Z" fill="#CF3339"/>
<path fill-rule="evenodd" clip-rule="evenodd" d="M79.9422 18.8861L62.0847 36.7436L59.9634 34.6223L77.8209 16.7648L79.9422 18.8861Z" fill="#CF3339"/>
</svg>
