<svg width="29" height="29" viewBox="0 0 29 29" fill="none" xmlns="http://www.w3.org/2000/svg">
<path fill-rule="evenodd" clip-rule="evenodd" d="M17.899 20.7962V19.5212L17.4596 19.0787C15.5836 20.7094 13.1844 21.6047 10.7033 21.6C7.94686 21.6 5.30329 20.5003 3.35418 18.5429C1.40506 16.5855 0.310059 13.9307 0.310059 11.1625C0.310059 8.39428 1.40506 5.73946 3.35418 3.78205C5.30329 1.82464 7.94686 0.724976 10.7033 0.724976C13.4598 0.724976 16.1034 1.82464 18.0525 3.78205C20.0016 5.73946 21.0966 8.39428 21.0966 11.1625C21.0997 13.6521 20.2113 16.0598 18.5935 17.9462L19.0329 18.3875H20.2963L28.2748 26.4162L25.8924 28.8087L17.8977 20.7962H17.899ZM17.899 11.1625C17.899 9.24595 17.1409 7.40793 15.7914 6.05274C14.442 4.69756 12.6117 3.93623 10.7033 3.93623C8.79493 3.93623 6.96469 4.69756 5.61525 6.05274C4.26581 7.40793 3.5077 9.24595 3.5077 11.1625C3.5077 13.079 4.26581 14.917 5.61525 16.2722C6.96469 17.6274 8.79493 18.3887 10.7033 18.3887C12.6117 18.3887 14.442 17.6274 15.7914 16.2722C17.1409 14.917 17.899 13.079 17.899 11.1625V11.1625Z" fill="#CF3339"/>
</svg>
