<?xml version="1.0" standalone="no"?>
<!DOCTYPE svg PUBLIC "-//W3C//DTD SVG 20010904//EN"
 "http://www.w3.org/TR/2001/REC-SVG-20010904/DTD/svg10.dtd">
<svg version="1.0" xmlns="http://www.w3.org/2000/svg"
 width="700.000000pt" height="700.000000pt" viewBox="0 0 700.000000 700.000000"
 preserveAspectRatio="xMidYMid meet">
<metadata>
Created by potrace 1.14, written by Peter Selinger 2001-2017
</metadata>
<g transform="translate(0.000000,700.000000) scale(0.100000,-0.100000)"
fill="#000000" stroke="none">
<path d="M1830 6149 l0 -834 578 -572 c317 -314 680 -673 805 -797 125 -124
230 -226 232 -226 3 0 5 388 5 863 l0 862 -23 25 c-13 14 -77 75 -143 137 -65
61 -148 139 -184 173 -36 34 -125 119 -199 189 -74 69 -153 144 -176 166 -23
22 -111 105 -195 185 -85 80 -195 184 -245 231 -49 47 -110 105 -135 128 -25
23 -74 70 -110 104 -36 35 -98 93 -137 131 l-73 69 0 -834z"/>
<path d="M5149 6897 c-48 -45 -151 -143 -229 -217 -79 -74 -164 -155 -190
-180 -44 -43 -272 -258 -370 -350 -95 -89 -345 -327 -380 -360 -93 -90 -343
-326 -351 -331 -5 -3 -8 -376 -7 -874 l3 -869 483 480 c266 263 630 623 808
799 l324 320 -2 832 -3 832 -86 -82z"/>
<path d="M46 5227 c4 -6 35 -41 70 -77 34 -36 77 -81 94 -100 18 -19 98 -104
179 -189 80 -85 162 -171 181 -191 66 -70 335 -354 411 -435 42 -44 91 -96
109 -115 78 -84 322 -340 400 -419 l85 -87 855 2 c470 1 859 2 864 3 5 1 -126
137 -292 304 -165 166 -414 417 -552 557 -138 140 -364 369 -503 507 l-251
253 -829 0 c-651 0 -826 -3 -821 -13z"/>
<path d="M4804 4674 c-307 -311 -656 -663 -774 -782 -118 -120 -226 -230 -241
-247 l-27 -30 867 0 c476 0 868 3 871 6 3 4 70 75 149 158 79 83 160 168 179
189 19 20 94 99 166 175 72 77 154 163 181 192 28 29 111 117 186 196 75 79
153 162 174 184 34 37 228 241 393 415 39 41 72 83 72 92 0 17 -50 18 -818 18
l-818 0 -560 -566z"/>
<path d="M1543 3421 c-15 -15 -91 -94 -168 -176 -77 -81 -156 -165 -175 -185
-121 -127 -330 -349 -360 -380 -19 -20 -101 -106 -181 -191 -164 -173 -183
-193 -347 -368 -65 -68 -152 -160 -194 -204 -42 -45 -75 -84 -73 -87 2 -3 374
-5 828 -5 l826 0 533 539 c541 547 919 929 1017 1030 l55 56 -867 0 -866 -1
-28 -28z"/>
<path d="M3772 3441 c2 -5 293 -303 648 -661 355 -359 712 -720 794 -803 l149
-152 819 0 c906 0 848 -5 788 64 -17 19 -97 104 -179 190 -81 86 -165 174
-186 196 -32 35 -237 251 -350 370 -22 23 -98 104 -170 180 -163 172 -176 186
-366 386 -85 90 -171 181 -190 201 l-34 37 -863 0 c-521 1 -862 -3 -860 -8z"/>
<path d="M3010 2893 c-237 -236 -600 -594 -806 -798 l-374 -370 2 -832 3 -831
70 66 c39 37 143 135 230 218 88 84 176 166 195 184 19 18 103 97 185 175 83
79 168 160 190 180 22 21 110 104 195 185 85 81 171 162 190 180 36 33 322
304 346 328 12 11 14 164 14 878 0 475 -2 864 -4 864 -2 0 -198 -192 -436
-427z"/>
<path d="M3620 2458 c0 -715 2 -869 14 -880 12 -12 282 -268 351 -333 18 -16
75 -70 127 -120 135 -129 397 -377 438 -415 19 -18 76 -71 125 -119 103 -98
373 -354 485 -459 l75 -70 3 831 2 832 -364 360 c-201 198 -547 540 -769 760
-223 220 -423 418 -446 440 l-41 39 0 -866z"/>
</g>
</svg>
